<svg width="512" height="512" viewBox="0 0 512 512" fill="none" xmlns="http://www.w3.org/2000/svg">
<g clip-path="url(#clip0_3_33)">
<path d="M287.001 121.773L286.633 390.227C286.633 402.968 280.737 410 270.053 410L233.578 410C222.895 410 217.001 402.968 217.001 390.227L217.369 121.773C217.369 109.032 223.265 102 233.949 102L270.424 102C281.107 102 287.001 109.032 287.001 121.773Z" fill="#E58E2B"/>
<path d="M321.921 153.6V340.27L419.445 340.273C430.117 340.273 436.003 346.177 436.003 356.875V393.399C436.003 404.099 430.117 409.999 419.445 409.999L262.501 410L252.001 379L252.369 153.6C252.369 142.902 258.258 136.998 268.93 136.998H305.363C316.034 136.998 321.921 142.902 321.921 153.6Z" fill="#02A9FF"/>
<path d="M170.681 137L75 410H149.338L165.53 362.778H246.49L262.316 410H336.284L240.97 137H170.681ZM182.457 302.28L205.64 226.651L231.033 302.28H182.457Z" fill="#FEFEFE"/>
<path d="M139.603 102L365.003 102.368C375.701 102.368 381.605 108.257 381.605 118.929V155.362C381.605 166.033 375.701 171.92 365.003 171.92L139.603 171.552C128.905 171.552 123.001 165.663 123.001 154.991V118.558C123.001 107.887 128.905 102 139.603 102Z" fill="#E58E2B"/>
</g>
<defs>
<clipPath id="clip0_3_33">
<rect width="512" height="512" fill="white"/>
</clipPath>
</defs>
</svg>
